<?xml version="1.0" standalone="no"?>
<!DOCTYPE svg PUBLIC "-//W3C//DTD SVG 20010904//EN"
 "http://www.w3.org/TR/2001/REC-SVG-20010904/DTD/svg10.dtd">
<svg version="1.0" xmlns="http://www.w3.org/2000/svg"
 width="640.000000pt" height="640.000000pt" viewBox="0 0 640.000000 640.000000"
 preserveAspectRatio="xMidYMid meet">

<g transform="translate(0.000000,640.000000) scale(0.100000,-0.100000)"
fill="#000000" stroke="none">
<path d="M0 3200 l0 -3200 3200 0 3200 0 0 3200 0 3200 -3200 0 -3200 0 0
-3200z m4645 1805 l0 -430 -90 0 -90 0 -5 313 -5 312 -77 -45 c-42 -25 -80
-45 -83 -45 -3 0 -4 46 -3 102 l3 102 105 63 105 64 70 -3 70 -3 0 -430z m564
419 c101 -30 170 -120 171 -222 0 -64 -17 -107 -58 -145 l-30 -29 48 -46 c40
-39 50 -56 59 -103 25 -123 -28 -227 -149 -290 -39 -21 -58 -24 -150 -23 -122
0 -170 17 -234 80 -41 41 -81 117 -73 138 3 7 40 23 83 36 64 19 79 20 83 9 2
-8 21 -31 43 -53 38 -38 38 -38 104 -34 58 4 70 8 90 32 34 38 33 94 -2 127
-21 19 -39 25 -97 29 l-72 5 0 80 0 80 45 3 c66 3 88 10 110 32 26 26 25 73
-2 105 -44 50 -149 32 -189 -31 -11 -19 -24 -34 -27 -34 -27 1 -138 51 -140
63 -4 21 21 69 60 112 30 35 87 70 138 86 43 13 134 10 189 -7z m-1471 -26
c14 -14 17 -265 4 -285 -6 -10 -264 -13 -1213 -15 l-1204 -3 -3 -257 c-2 -257
-2 -258 -25 -263 -12 -3 -83 -4 -157 -3 l-135 3 -3 405 c-1 223 0 411 3 417 6
18 2715 19 2733 1z m-1644 -1304 c12 -31 7 -279 -6 -297 -12 -15 -43 -17 -268
-19 l-255 -3 -5 -730 -5 -730 -185 -3 c-165 -2 -186 -1 -197 15 -10 13 -13
175 -13 735 l0 718 -249 0 c-137 0 -256 3 -265 6 -14 5 -16 29 -16 158 0 84 3
156 7 159 3 4 331 7 729 7 649 0 722 -2 728 -16z m1083 -21 c8 -21 87 -222
173 -448 87 -225 193 -498 235 -605 224 -573 264 -681 259 -695 -5 -13 -36
-15 -204 -15 -146 0 -200 3 -208 13 -5 6 -36 83 -68 170 l-59 157 -376 0 -376
0 -53 -142 c-29 -79 -59 -155 -67 -170 l-14 -28 -193 0 c-161 0 -195 2 -199
15 -6 13 65 201 278 740 48 121 157 400 242 620 85 220 160 406 165 413 8 9
66 12 230 12 l219 0 16 -37z m1282 24 c8 -10 12 -222 13 -733 l3 -719 345 -5
345 -5 0 -160 0 -160 -542 -3 c-509 -2 -543 -1 -551 15 -13 24 -13 1742 -1
1766 9 15 29 17 193 17 142 0 186 -3 195 -13z m1199 -1544 c2 -1474 1 -1553
-15 -1553 -394 -5 -4630 3 -4635 8 -5 5 -7 199 -6 433 l3 424 155 0 155 0 5
-275 5 -275 2005 0 2005 0 2 1385 c2 762 5 1391 8 1398 3 10 41 12 157 10
l153 -3 3 -1552z"/>
<path d="M2921 3650 c-31 -66 -248 -656 -244 -662 6 -10 500 -10 506 0 4 5
-127 364 -247 677 -2 6 -9 -1 -15 -15z"/>
</g>
</svg>
